<?xml version="1.0" ?><svg id="Icons_Lecturer" overflow="hidden" version="1.1" viewBox="0 0 96 96" xmlns="http://www.w3.org/2000/svg" xmlns:xlink="http://www.w3.org/1999/xlink"><path d=" M 48 19.5 C 52.4 19.5 56 15.9 56 11.5 C 56 7.1 52.4 3.5 48 3.5 C 43.6 3.5 40 7.1 40 11.5 C 40 15.9 43.6 19.5 48 19.5"/><path d=" M 68 49.5 L 72 37.5 L 24 37.5 L 28 49.5 L 34 49.5 L 38 88.5 L 32 88.5 L 32 92.5 L 64 92.5 L 64 88.5 L 58 88.5 L 62 49.5 Z"/><path d=" M 64.2 28.9 C 64 28.1 63.6 27.3 63 26.7 C 60.6 24.7 57.8 23.3 54.6 22.3 C 52.4 21.9 50.2 21.5 48 21.5 C 45.8 21.5 43.6 21.9 41.4 22.5 C 38.2 23.3 35.4 24.9 33 26.9 C 32.4 27.5 32 28.3 31.8 29.1 L 30.8 33.5 L 65.3 33.5 L 64.2 28.9 Z"/></svg>